<svg xmlns="http://www.w3.org/2000/svg" width="24" height="24" viewBox="0 0 24 24">
<symbol id="add" viewBox="0 0 24 24"><path d="M12 2c5.514 0 10 4.486 10 10s-4.486 10-10 10-10-4.486-10-10 4.486-10 10-10zm0-2c-6.627 0-12 5.373-12 12s5.373 12 12 12 12-5.373 12-12-5.373-12-12-12zm6 13h-5v5h-2v-5h-5v-2h5v-5h2v5h5v2z"/></symbol>
<symbol id="arrow_right_1" viewBox="0 0 24 24"><path d="M21 12l-18 12v-24z"/></symbol>
<symbol id="basket" viewBox="0 0 24 24"><path d="M24 3l-.743 2h-1.929l-3.474 12h-13.239l-4.615-11h16.812l-.564 2h-13.24l2.937 7h10.428l3.432-12h4.195zm-15.5 15c-.828 0-1.5.672-1.5 1.5 0 .829.672 1.5 1.5 1.5s1.5-.671 1.5-1.5c0-.828-.672-1.5-1.5-1.5zm6.9-7-1.9 7c-.828 0-1.5.671-1.5 1.5s.672 1.5 1.5 1.5 1.5-.671 1.5-1.5c0-.828-.672-1.5-1.5-1.5z"/></symbol>
<symbol id="bot" viewBox="0 0 24 24"><path d="M3.848 19h-.848c-.796 0-1.559-.316-2.121-.879-.563-.562-.879-1.325-.879-2.121v-3c0-7.175 5.377-13 12-13s12 5.825 12 13v3c0 .796-.316 1.559-.879 2.121-.562.563-1.325.879-2.121.879h-.848c-2.69 4.633-6.904 5-8.152 5-1.248 0-5.462-.367-8.152-5zm16.152-5.876c-.601.236-1.269-.18-1.269-.797 0-.304-.022-.61-.053-.915-1.761-.254-3.618-1.926-3.699-3.723-1.315 2.005-4.525 4.17-7.044 4.17 1.086-.699 1.839-2.773 1.903-3.508-.581 1.092-2.898 3.136-4.551 3.487l-.018.489c0 .619-.669 1.032-1.269.797v3.771c.287.256.632.464 1.041.594.225.072.412.224.521.424 2.206 4.046 5.426 4.087 6.438 4.087.929 0 3.719-.035 5.877-3.169-1.071.433-2.265.604-3.759.653-.37.6-1.18 1.016-2.118 1.016-1.288 0-2.333-.784-2.333-1.75s1.045-1.75 2.333-1.75c.933 0 1.738.411 2.112 1.005 1.9-.026 4.336-.334 5.888-2.645v-2.236zm-11-.624c.686 0 1.243.672 1.243 1.5s-.557 1.5-1.243 1.5-1.243-.672-1.243-1.5.557-1.5 1.243-1.5zm6 0c.686 0 1.243.672 1.243 1.5s-.557 1.5-1.243 1.5-1.243-.672-1.243-1.5.557-1.5 1.243-1.5zm5.478-1.5h1.357c-.856-5.118-4.937-9-9.835-9-4.898 0-8.979 3.882-9.835 9h1.357c.52-4.023 3.411-7.722 8.478-7.722s7.958 3.699 8.478 7.722z"/></symbol>
<symbol id="chars" viewBox="0 0 24 24"><path d="M2 23h-2v-2h2v2zm0-12h-2v2h2v-2zm0 5h-2v2h2v-2zm0-15h-2v2h2v-2zm2 0v2h20v-2h-20zm-2 5h-2v2h2v-2zm2 7h20v-2h-20v2zm0 10h20v-2h-20v2zm0-15h20v-2h-20v2zm0 10h20v-2h-20v2z"/></symbol>
<symbol id="cursor24" viewBox="0 0 24 24"><path d="M24 12l-6-5v4h-5v-5h4l-5-6-5 6h4v5h-5v-4l-6 5 6 5v-4h5v5h-4l5 6 5-6h-4v-5h5v4z"/></symbol>
<symbol id="delete" viewBox="0 0 24 24"><path d="M24 20.188l-8.315-8.209 8.2-8.282-3.697-3.697-8.212 8.318-8.31-8.203-3.666 3.666 8.321 8.24-8.206 8.313 3.666 3.666 8.237-8.318 8.285 8.203z"/></symbol>
<symbol id="down" viewBox="0 0 24 24"><path d="M12 21l-12-18h24z"/></symbol>
<symbol id="edit" viewBox="0 0 24 24"><path d="M8.424 12.282l4.402 4.399-5.826 1.319 1.424-5.718zm15.576-6.748l-9.689 9.804-4.536-4.536 9.689-9.802 4.536 4.534zm-6 8.916v6.55h-16v-12h6.743l1.978-2h-10.721v16h20v-10.573l-2 2.023z"/></symbol>
<symbol id="exit" viewBox="0 0 24 24"><svg width="24" height="24" xmlns="http://www.w3.org/2000/svg" fill-rule="evenodd" clip-rule="evenodd"><path d="M11 21h8v-2l1-1v4h-9v2l-10-3v-18l10-3v2h9v5l-1-1v-3h-8v18zm10.053-9l-3.293-3.293.707-.707 4.5 4.5-4.5 4.5-.707-.707 3.293-3.293h-9.053v-1h9.053z"/></svg></symbol>
<symbol id="eye" viewBox="0 0 24 24"><path d="M12.015 7c4.751 0 8.063 3.012 9.504 4.636-1.401 1.837-4.713 5.364-9.504 5.364-4.42 0-7.93-3.536-9.478-5.407 1.493-1.647 4.817-4.593 9.478-4.593zm0-2c-7.569 0-12.015 6.551-12.015 6.551s4.835 7.449 12.015 7.449c7.733 0 11.985-7.449 11.985-7.449s-4.291-6.551-11.985-6.551zm-.015 3c-2.209 0-4 1.792-4 4 0 2.209 1.791 4 4 4s4-1.791 4-4c0-2.208-1.791-4-4-4z"/></symbol>
<symbol id="filter" viewBox="0 0 24 24"><path d="M1 0l9 15.094v5.906l4 3v-8.906l9-15.094h-22zm18.479 2l-2.981 5h-8.996l-2.981-5h14.958z"/></symbol>
<symbol id="folder_add" viewBox="0 0 24 24"><path d="M19.5 13c-2.483 0-4.5 2.015-4.5 4.5s2.017 4.5 4.5 4.5 4.5-2.015 4.5-4.5-2.017-4.5-4.5-4.5zm2.5 5h-2v2h-1v-2h-2v-1h2v-2h1v2h2v1zm-7.18 4h-14.82v-20h7c1.695 1.942 2.371 3 4 3h13v7.82c-.576-.554-1.252-1.006-2-1.319v-4.501h-11c-2.34 0-3.537-1.388-4.916-3h-4.084v16h11.502c.312.749.765 1.424 1.318 2z"/></symbol>
<symbol id="help" viewBox="0 0 24 24"><path d="M14.601 21.5c0 1.38-1.116 2.5-2.499 2.5-1.378 0-2.499-1.12-2.499-2.5s1.121-2.5 2.499-2.5c1.383 0 2.499 1.119 2.499 2.5zm-2.42-21.5c-4.029 0-7.06 2.693-7.06 8h3.955c0-2.304.906-4.189 3.024-4.189 1.247 0 2.57.828 2.684 2.411.123 1.666-.767 2.511-1.892 3.582-2.924 2.78-2.816 4.049-2.816 7.196h3.943c0-1.452-.157-2.508 1.838-4.659 1.331-1.436 2.986-3.222 3.021-5.943.047-3.963-2.751-6.398-6.697-6.398z"/></symbol>
<symbol id="help_2" viewBox="0 0 24 24"><path d="M12 2c5.514 0 10 4.486 10 10s-4.486 10-10 10-10-4.486-10-10 4.486-10 10-10zm0-2c-6.627 0-12 5.373-12 12s5.373 12 12 12 12-5.373 12-12-5.373-12-12-12zm1.25 17c0 .69-.559 1.25-1.25 1.25-.689 0-1.25-.56-1.25-1.25s.561-1.25 1.25-1.25c.691 0 1.25.56 1.25 1.25zm1.393-9.998c-.608-.616-1.515-.955-2.551-.955-2.18 0-3.59 1.55-3.59 3.95h2.011c0-1.486.829-2.013 1.538-2.013.634 0 1.307.421 1.364 1.226.062.847-.39 1.277-.962 1.821-1.412 1.343-1.438 1.993-1.432 3.468h2.005c-.013-.664.03-1.203.935-2.178.677-.73 1.519-1.638 1.536-3.022.011-.924-.284-1.719-.854-2.297z"/></symbol>
<symbol id="gear" viewBox="0 0 24 24"><path d="M24 14.187v-4.374c-2.148-.766-2.726-.802-3.027-1.529-.303-.729.083-1.169 1.059-3.223l-3.093-3.093c-2.026.963-2.488 1.364-3.224 1.059-.727-.302-.768-.889-1.527-3.027h-4.375c-.764 2.144-.8 2.725-1.529 3.027-.752.313-1.203-.1-3.223-1.059l-3.093 3.093c.977 2.055 1.362 2.493 1.059 3.224-.302.727-.881.764-3.027 1.528v4.375c2.139.76 2.725.8 3.027 1.528.304.734-.081 1.167-1.059 3.223l3.093 3.093c1.999-.95 2.47-1.373 3.223-1.059.728.302.764.88 1.529 3.027h4.374c.758-2.131.799-2.723 1.537-3.031.745-.308 1.186.099 3.215 1.062l3.093-3.093c-.975-2.05-1.362-2.492-1.059-3.223.3-.726.88-.763 3.027-1.528zm-4.875.764c-.577 1.394-.068 2.458.488 3.578l-1.084 1.084c-1.093-.543-2.161-1.076-3.573-.49-1.396.581-1.79 1.693-2.188 2.877h-1.534c-.398-1.185-.791-2.297-2.183-2.875-1.419-.588-2.507-.045-3.579.488l-1.083-1.084c.557-1.118 1.066-2.18.487-3.58-.579-1.391-1.691-1.784-2.876-2.182v-1.533c1.185-.398 2.297-.791 2.875-2.184.578-1.394.068-2.459-.488-3.579l1.084-1.084c1.082.538 2.162 1.077 3.58.488 1.392-.577 1.785-1.69 2.183-2.875h1.534c.398 1.185.792 2.297 2.184 2.875 1.419.588 2.506.045 3.579-.488l1.084 1.084c-.556 1.121-1.065 2.187-.488 3.58.577 1.391 1.689 1.784 2.875 2.183v1.534c-1.188.398-2.302.791-2.877 2.183zm-7.125-5.951c1.654 0 3 1.346 3 3s-1.346 3-3 3-3-1.346-3-3 1.346-3 3-3zm0-2c-2.762 0-5 2.238-5 5s2.238 5 5 5 5-2.238 5-5-2.238-5-5-5z"/></symbol>
<symbol id="info" viewBox="0 0 24 24"><path d="M12 2c5.514 0 10 4.486 10 10s-4.486 10-10 10-10-4.486-10-10 4.486-10 10-10zm0-2c-6.627 0-12 5.373-12 12s5.373 12 12 12 12-5.373 12-12-5.373-12-12-12zm1 18h-2v-8h2v8zm-1-12.25c.69 0 1.25.56 1.25 1.25s-.56 1.25-1.25 1.25-1.25-.56-1.25-1.25.56-1.25 1.25-1.25z"/></symbol>
<symbol id="home" viewBox="0 0 24 24"><path d="M20 7.093v-5.093h-3v2.093l3 3zm4 5.907l-12-12-12 12h3v10h7v-5h4v5h7v-10h3zm-5 8h-3v-5h-8v5h-3v-10.26l7-6.912 7 6.99v10.182z"/></symbol>
<symbol id="menu_3" viewBox="0 0 24 24"><path d="M13 6h-13v-4h13v4zm0 4h-13v4h13v-4zm0 8h-13v4h13v-4zm3-8l4 5.075 4-5.075h-8z"/></symbol>
<symbol id="paper_add" viewBox="0 0 24 24"><path d="M18.5 15c-2.483 0-4.5 2.015-4.5 4.5s2.017 4.5 4.5 4.5 4.5-2.015 4.5-4.5-2.017-4.5-4.5-4.5zm2.5 5h-2v2h-1v-2h-2v-1h2v-2h1v2h2v1zm-7.18 4h-12.82v-24h10.189c3.163 0 9.811 7.223 9.811 9.614v3.887c-.624-.261-1.297-.422-2-.476v-2.569c0-4.106-6-2.456-6-2.456s1.518-6-2.638-6h-7.362v20h9.501c.313.749.765 1.424 1.319 2z"/></symbol>
<symbol id="pages" viewBox="0 0 24 24"><path d="M7 22v-16h14v7.543c0 4.107-6 2.457-6 2.457s1.518 6-2.638 6h-5.362zm16-7.614v-10.386h-18v20h8.189c3.163 0 9.811-7.223 9.811-9.614zm-10 1.614h-4v-1h4v1zm6-4h-10v1h10v-1zm0-3h-10v1h10v-1zm1-7h-17v19h-2v-21h19v2z"/></symbol>
<symbol id="question" viewBox="0 0 24 24"><path d="M12 3c5.514 0 10 3.592 10 8.007 0 4.917-5.145 7.961-9.91 7.961-1.937 0-3.383-.397-4.394-.644-1 .613-1.595 1.037-4.272 1.82.535-1.373.723-2.748.602-4.265-.838-1-2.025-2.4-2.025-4.872-.001-4.415 4.485-8.007 9.999-8.007zm0-2c-6.338 0-12 4.226-12 10.007 0 2.05.738 4.063 2.047 5.625.055 1.83-1.023 4.456-1.993 6.368 2.602-.47 6.301-1.508 7.978-2.536 1.418.345 2.775.503 4.059.503 7.084 0 11.91-4.837 11.91-9.961-.001-5.811-5.702-10.006-12.001-10.006zm1.024 13.975c0 .566-.458 1.025-1.024 1.025-.565 0-1.024-.459-1.024-1.025 0-.565.459-1.024 1.024-1.024.566 0 1.024.459 1.024 1.024zm1.141-8.192c-.498-.505-1.241-.783-2.09-.783-1.786 0-2.941 1.271-2.941 3.237h1.647c0-1.217.68-1.649 1.261-1.649.519 0 1.07.345 1.117 1.004.052.694-.319 1.046-.788 1.493-1.157 1.1-1.179 1.633-1.173 2.842h1.643c-.01-.544.025-.986.766-1.785.555-.598 1.245-1.342 1.259-2.477.008-.758-.233-1.409-.701-1.882z"/></symbol>
<symbol id="section" viewBox="0 0 24 24"><path d="M6.083 4c1.38 1.612 2.578 3 4.917 3h11v13h-20v-16h4.083zm.917-2h-7v20h24v-17h-13c-1.629 0-2.305-1.058-4-3z"/></symbol>
<symbol id="text" viewBox="0 0 24 24"><path d="M22 0h-20v6h1.999c0-1.174.397-3 2.001-3h4v16.874c0 1.174-.825 2.126-2 2.126h-1v2h9.999v-2h-.999c-1.174 0-2-.952-2-2.126v-16.874h4c1.649 0 2.02 1.826 2.02 3h1.98v-6z"/></symbol>
<symbol id="user_add" viewBox="0 0 24 24"><path d="M8.602 3.7c-1.154 1.937-.635 5.227 1.424 9.025.93 1.712.697 3.02.338 3.815-.982 2.178-3.675 2.799-6.525 3.456-1.964.454-1.839.87-1.839 4.004h-1.995l-.005-1.241c0-2.52.199-3.975 3.178-4.663 3.365-.777 6.688-1.473 5.09-4.418-4.733-8.729-1.35-13.678 3.732-13.678 3.321 0 5.97 2.117 5.97 6.167 0 3.555-1.949 6.833-2.383 7.833h-2.115c.392-1.536 2.499-4.366 2.499-7.842 0-5.153-5.867-4.985-7.369-2.458zm15.398 15.8c0 2.485-2.017 4.5-4.5 4.5s-4.5-2.015-4.5-4.5 2.017-4.5 4.5-4.5 4.5 2.015 4.5 4.5zm-2-.5h-2v-2h-1v2h-2v1h2v2h1v-2h2v-1z"/></symbol>
<symbol id="video" viewBox="0 0 24 24"><path d="M12 2c5.514 0 10 4.486 10 10s-4.486 10-10 10-10-4.486-10-10 4.486-10 10-10zm0-2c-6.627 0-12 5.373-12 12s5.373 12 12 12 12-5.373 12-12-5.373-12-12-12zm-3 17v-10l9 5.146-9 4.854z"/></symbol>
</svg>