<svg xmlns="http://www.w3.org/2000/svg" width="24" height="24" viewBox="0 0 24 24">
<symbol id="add" viewBox="0 0 24 24"><path d="M12 2c5.514 0 10 4.486 10 10s-4.486 10-10 10-10-4.486-10-10 4.486-10 10-10zm0-2c-6.627 0-12 5.373-12 12s5.373 12 12 12 12-5.373 12-12-5.373-12-12-12zm6 13h-5v5h-2v-5h-5v-2h5v-5h2v5h5v2z"/></symbol>
<symbol id="alarm" viewBox="0 0 24 24"><path d="M15 21c0 1.598-1.392 3-2.971 3s-3.029-1.402-3.029-3h6zm.137-17.055c-.644-.374-1.042-1.07-1.041-1.82v-.003c.001-1.172-.938-2.122-2.096-2.122s-2.097.95-2.097 2.122v.003c.001.751-.396 1.446-1.041 1.82-4.668 2.709-1.985 11.715-6.862 13.306v1.749h20v-1.749c-4.877-1.591-2.193-10.598-6.863-13.306zm-3.137-2.945c.552 0 1 .449 1 1 0 .552-.448 1-1 1s-1-.448-1-1c0-.551.448-1 1-1zm-6.451 16c1.189-1.667 1.605-3.891 1.964-5.815.447-2.39.869-4.648 2.354-5.509 1.38-.801 2.956-.76 4.267 0 1.485.861 1.907 3.119 2.354 5.509.359 1.924.775 4.148 1.964 5.815h-12.903zm15.229-7.679c.18.721.05 1.446-.304 2.035l.97.584c.504-.838.688-1.869.433-2.892-.255-1.024-.9-1.848-1.739-2.351l-.582.97c.589.355 1.043.934 1.222 1.654zm.396-4.346l-.597.995c1.023.616 1.812 1.623 2.125 2.874.311 1.251.085 2.51-.53 3.534l.994.598c.536-.892.835-1.926.835-3-.001-1.98-1.01-3.909-2.827-5.001zm-16.73 2.692l-.582-.97c-.839.504-1.484 1.327-1.739 2.351-.255 1.023-.071 2.053.433 2.892l.97-.584c-.354-.588-.484-1.314-.304-2.035.179-.72.633-1.299 1.222-1.654zm-4.444 2.308c0 1.074.299 2.108.835 3l.994-.598c-.615-1.024-.841-2.283-.53-3.534.312-1.251 1.101-2.258 2.124-2.873l-.597-.995c-1.817 1.092-2.826 3.021-2.826 5z"/></symbol>
<symbol id="cursor24" viewBox="0 0 24 24"><path d="M24 12l-6-5v4h-5v-5h4l-5-6-5 6h4v5h-5v-4l-6 5 6 5v-4h5v5h-4l5 6 5-6h-4v-5h5v4z"/></symbol>
<symbol id="database" viewBox="0 0 24 24"><path d="M12.008 0c-4.225 0-10.008 1.001-10.008 4.361v15.277c0 3.362 6.209 4.362 10.008 4.362 3.783 0 9.992-1.001 9.992-4.361v-15.278c0-3.361-5.965-4.361-9.992-4.361zm0 2c3.638 0 7.992.909 7.992 2.361 0 1.581-5.104 2.361-7.992 2.361-3.412.001-8.008-.905-8.008-2.361 0-1.584 4.812-2.361 8.008-2.361zm7.992 17.386c0 1.751-5.104 2.614-7.992 2.614-3.412 0-8.008-1.002-8.008-2.614v-2.04c2.117 1.342 5.17 1.78 8.008 1.78 2.829 0 5.876-.438 7.992-1.78v2.04zm0-4.873c0 1.75-5.104 2.614-7.992 2.614-3.412-.001-8.008-1.002-8.008-2.614v-2.364c2.116 1.341 5.17 1.78 8.008 1.78 2.839 0 5.881-.442 7.992-1.78v2.364zm-7.992-2.585c-3.426 0-8.008-1.006-8.008-2.614v-2.371c2.117 1.342 5.17 1.78 8.008 1.78 2.829 0 5.876-.438 7.992-1.78v2.372c0 1.753-5.131 2.613-7.992 2.613z"/></symbol>
<symbol id="delete" viewBox="0 0 24 24"><path d="M24 20.188l-8.315-8.209 8.2-8.282-3.697-3.697-8.212 8.318-8.31-8.203-3.666 3.666 8.321 8.24-8.206 8.313 3.666 3.666 8.237-8.318 8.285 8.203z"/></symbol>
<symbol id="edit" viewBox="0 0 24 24"><path d="M8.424 12.282l4.402 4.399-5.826 1.319 1.424-5.718zm15.576-6.748l-9.689 9.804-4.536-4.536 9.689-9.802 4.536 4.534zm-6 8.916v6.55h-16v-12h6.743l1.978-2h-10.721v16h20v-10.573l-2 2.023z"/></symbol>
<symbol id="exit" viewBox="0 0 24 24"><svg width="24" height="24" xmlns="http://www.w3.org/2000/svg" fill-rule="evenodd" clip-rule="evenodd"><path d="M11 21h8v-2l1-1v4h-9v2l-10-3v-18l10-3v2h9v5l-1-1v-3h-8v18zm10.053-9l-3.293-3.293.707-.707 4.5 4.5-4.5 4.5-.707-.707 3.293-3.293h-9.053v-1h9.053z"/></svg></symbol>
<symbol id="eye" viewBox="0 0 24 24"><path d="M12.015 7c4.751 0 8.063 3.012 9.504 4.636-1.401 1.837-4.713 5.364-9.504 5.364-4.42 0-7.93-3.536-9.478-5.407 1.493-1.647 4.817-4.593 9.478-4.593zm0-2c-7.569 0-12.015 6.551-12.015 6.551s4.835 7.449 12.015 7.449c7.733 0 11.985-7.449 11.985-7.449s-4.291-6.551-11.985-6.551zm-.015 3c-2.209 0-4 1.792-4 4 0 2.209 1.791 4 4 4s4-1.791 4-4c0-2.208-1.791-4-4-4z"/></symbol>
<symbol id="filter" viewBox="0 0 24 24"><path d="M1 0l9 15.094v5.906l4 3v-8.906l9-15.094h-22zm18.479 2l-2.981 5h-8.996l-2.981-5h14.958z"/></symbol>
<symbol id="help" viewBox="0 0 24 24"><path d="M14.601 21.5c0 1.38-1.116 2.5-2.499 2.5-1.378 0-2.499-1.12-2.499-2.5s1.121-2.5 2.499-2.5c1.383 0 2.499 1.119 2.499 2.5zm-2.42-21.5c-4.029 0-7.06 2.693-7.06 8h3.955c0-2.304.906-4.189 3.024-4.189 1.247 0 2.57.828 2.684 2.411.123 1.666-.767 2.511-1.892 3.582-2.924 2.78-2.816 4.049-2.816 7.196h3.943c0-1.452-.157-2.508 1.838-4.659 1.331-1.436 2.986-3.222 3.021-5.943.047-3.963-2.751-6.398-6.697-6.398z"/></symbol>
<symbol id="help_2" viewBox="0 0 24 24"><path d="M12 2c5.514 0 10 4.486 10 10s-4.486 10-10 10-10-4.486-10-10 4.486-10 10-10zm0-2c-6.627 0-12 5.373-12 12s5.373 12 12 12 12-5.373 12-12-5.373-12-12-12zm1.25 17c0 .69-.559 1.25-1.25 1.25-.689 0-1.25-.56-1.25-1.25s.561-1.25 1.25-1.25c.691 0 1.25.56 1.25 1.25zm1.393-9.998c-.608-.616-1.515-.955-2.551-.955-2.18 0-3.59 1.55-3.59 3.95h2.011c0-1.486.829-2.013 1.538-2.013.634 0 1.307.421 1.364 1.226.062.847-.39 1.277-.962 1.821-1.412 1.343-1.438 1.993-1.432 3.468h2.005c-.013-.664.03-1.203.935-2.178.677-.73 1.519-1.638 1.536-3.022.011-.924-.284-1.719-.854-2.297z"/></symbol>
<symbol id="gear" viewBox="0 0 24 24"><path d="M24 14.187v-4.374c-2.148-.766-2.726-.802-3.027-1.529-.303-.729.083-1.169 1.059-3.223l-3.093-3.093c-2.026.963-2.488 1.364-3.224 1.059-.727-.302-.768-.889-1.527-3.027h-4.375c-.764 2.144-.8 2.725-1.529 3.027-.752.313-1.203-.1-3.223-1.059l-3.093 3.093c.977 2.055 1.362 2.493 1.059 3.224-.302.727-.881.764-3.027 1.528v4.375c2.139.76 2.725.8 3.027 1.528.304.734-.081 1.167-1.059 3.223l3.093 3.093c1.999-.95 2.47-1.373 3.223-1.059.728.302.764.88 1.529 3.027h4.374c.758-2.131.799-2.723 1.537-3.031.745-.308 1.186.099 3.215 1.062l3.093-3.093c-.975-2.05-1.362-2.492-1.059-3.223.3-.726.88-.763 3.027-1.528zm-4.875.764c-.577 1.394-.068 2.458.488 3.578l-1.084 1.084c-1.093-.543-2.161-1.076-3.573-.49-1.396.581-1.79 1.693-2.188 2.877h-1.534c-.398-1.185-.791-2.297-2.183-2.875-1.419-.588-2.507-.045-3.579.488l-1.083-1.084c.557-1.118 1.066-2.18.487-3.58-.579-1.391-1.691-1.784-2.876-2.182v-1.533c1.185-.398 2.297-.791 2.875-2.184.578-1.394.068-2.459-.488-3.579l1.084-1.084c1.082.538 2.162 1.077 3.58.488 1.392-.577 1.785-1.69 2.183-2.875h1.534c.398 1.185.792 2.297 2.184 2.875 1.419.588 2.506.045 3.579-.488l1.084 1.084c-.556 1.121-1.065 2.187-.488 3.58.577 1.391 1.689 1.784 2.875 2.183v1.534c-1.188.398-2.302.791-2.877 2.183zm-7.125-5.951c1.654 0 3 1.346 3 3s-1.346 3-3 3-3-1.346-3-3 1.346-3 3-3zm0-2c-2.762 0-5 2.238-5 5s2.238 5 5 5 5-2.238 5-5-2.238-5-5-5z"/></symbol>
<symbol id="info" viewBox="0 0 24 24"><path d="M12 2c5.514 0 10 4.486 10 10s-4.486 10-10 10-10-4.486-10-10 4.486-10 10-10zm0-2c-6.627 0-12 5.373-12 12s5.373 12 12 12 12-5.373 12-12-5.373-12-12-12zm1 18h-2v-8h2v8zm-1-12.25c.69 0 1.25.56 1.25 1.25s-.56 1.25-1.25 1.25-1.25-.56-1.25-1.25.56-1.25 1.25-1.25z"/></symbol>
<symbol id="learn" viewBox="0 0 24 24"><path d="M15.996 23.999h-12.605s.734-3.931.633-5.686c-.041-.724-.161-1.474-.54-2.104-.645-1-2.636-3.72-2.475-7.43.224-5.209 4.693-8.779 10.126-8.779 5.098 0 8.507 3.001 9.858 7.483.328 1.079.311 1.541-.151 2.607l-.006.013 1.751 2.142c.26.381.413.791.413 1.239 0 .547-.233 1.045-.61 1.399-.368.345-.767.452-1.248.642 0 0-.576 2.592-.873 3.291-.7 1.643-1.97 1.659-2.97 1.849-.394.083-.49.133-.681.681-.208.591-.363 1.435-.622 2.653m-4.842-22c-4.285.048-7.74 2.548-8.121 6.488-.192 1.991.463 3.986 1.516 5.705.611 1 1.305 1.592 1.464 3.875.091 1.313-.05 2.636-.241 3.932h8.604c.141-.645.35-1.485.687-2.057.449-.766 1.097-1.099 1.926-1.254.838-.148 1.238-.059 1.489-.785.212-.579.612-2.221.831-3.902 1.203-.335.612-.161 1.671-.559-.206-.234-1.918-2.314-2.045-2.6-.336-.759-.046-1.19.225-1.913.086-.251.06-.357-.009-.613-1.049-3.949-3.891-6.317-7.997-6.317m.52 3c.242.684.312 1.122.841 1.341h.001c.53.221.893-.044 1.543-.353l.953.952c-.312.655-.573 1.016-.354 1.544v.001c.219.528.653.597 1.342.841v1.347c-.681.243-1.123.313-1.342.843-.22.529.043.891.354 1.544l-.953.952c-.657-.313-1.014-.574-1.541-.355h-.001c-.531.222-.601.661-.843 1.343h-1.348c-.242-.684-.312-1.122-.841-1.34l-.001-.001c-.529-.221-.892.043-1.544.353l-.952-.952c.305-.643.574-1.011.353-1.545-.22-.529-.661-.599-1.341-.842v-1.347c.681-.242 1.121-.312 1.341-.841.22-.531-.042-.891-.353-1.545l.952-.952c.657.312 1.015.573 1.544.353h.001c.529-.219.599-.661.841-1.341h1.348zm-.674 6.667c-.92 0-1.667-.746-1.667-1.667s.747-1.667 1.667-1.667 1.666.746 1.666 1.667-.746 1.667-1.666 1.667"/></symbol>
<symbol id="home" viewBox="0 0 24 24"><path d="M20 7.093v-5.093h-3v2.093l3 3zm4 5.907l-12-12-12 12h3v10h7v-5h4v5h7v-10h3zm-5 8h-3v-5h-8v5h-3v-10.26l7-6.912 7 6.99v10.182z"/></symbol>
<symbol id="menu_3" viewBox="0 0 24 24"><path d="M13 6h-13v-4h13v4zm0 4h-13v4h13v-4zm0 8h-13v4h13v-4zm3-8l4 5.075 4-5.075h-8z"/></symbol>
<symbol id="factory" viewBox="0 0 24 24"><path d="M24 24h-24v-18h6v6l6-4v4.008l6-4.008v4.017l6-4.017v16zm-20-16h-2v14h20v-10l-6 4v-4l-6 4v-4l-6 4v-8zm11 12h-2v-3h2v3zm-4 0h-2v-3h2v3zm-4 0h-2v-3h2v3zm12 0h-2v-3h2v3zm-16-15h-1c.198-2.182 1.785-4 3.5-4 .246 0 .478.059.683.164.316-.687 1.011-1.164 1.817-1.164s1.501.477 1.817 1.164c.205-.105.437-.164.683-.164.828 0 1.5.672 1.5 1.5s-.672 1.5-1.5 1.5c-.246 0-.478-.059-.683-.164-.316.687-1.011 1.164-1.817 1.164-2.345 0-3.722-2.951-5 0z"/></symbol>
<symbol id="question" viewBox="0 0 24 24"><path d="M12 3c5.514 0 10 3.592 10 8.007 0 4.917-5.145 7.961-9.91 7.961-1.937 0-3.383-.397-4.394-.644-1 .613-1.595 1.037-4.272 1.82.535-1.373.723-2.748.602-4.265-.838-1-2.025-2.4-2.025-4.872-.001-4.415 4.485-8.007 9.999-8.007zm0-2c-6.338 0-12 4.226-12 10.007 0 2.05.738 4.063 2.047 5.625.055 1.83-1.023 4.456-1.993 6.368 2.602-.47 6.301-1.508 7.978-2.536 1.418.345 2.775.503 4.059.503 7.084 0 11.91-4.837 11.91-9.961-.001-5.811-5.702-10.006-12.001-10.006zm1.024 13.975c0 .566-.458 1.025-1.024 1.025-.565 0-1.024-.459-1.024-1.025 0-.565.459-1.024 1.024-1.024.566 0 1.024.459 1.024 1.024zm1.141-8.192c-.498-.505-1.241-.783-2.09-.783-1.786 0-2.941 1.271-2.941 3.237h1.647c0-1.217.68-1.649 1.261-1.649.519 0 1.07.345 1.117 1.004.052.694-.319 1.046-.788 1.493-1.157 1.1-1.179 1.633-1.173 2.842h1.643c-.01-.544.025-.986.766-1.785.555-.598 1.245-1.342 1.259-2.477.008-.758-.233-1.409-.701-1.882z"/></symbol>
</svg>